<?xml version="1.0" encoding="UTF-8" standalone="no"?>
<!-- Created with Inkscape (http://www.inkscape.org/) -->

<svg
   xmlns:dc="http://purl.org/dc/elements/1.1/"
   xmlns:cc="http://creativecommons.org/ns#"
   xmlns:rdf="http://www.w3.org/1999/02/22-rdf-syntax-ns#"
   xmlns:svg="http://www.w3.org/2000/svg"
   xmlns="http://www.w3.org/2000/svg"
   xmlns:sodipodi="http://sodipodi.sourceforge.net/DTD/sodipodi-0.dtd"
   xmlns:inkscape="http://www.inkscape.org/namespaces/inkscape"
   width="20mm"
   height="20mm"
   viewBox="0 0 20.000001 20.000001"
   version="1.1"
   id="svg5220"
   inkscape:version="0.92.4 5da689c313, 2019-01-14"
   sodipodi:docname="football01.svg">
  <defs
     id="defs5214" />
  <sodipodi:namedview
     id="base"
     pagecolor="#ffffff"
     bordercolor="#666666"
     borderopacity="1.0"
     inkscape:pageopacity="0.0"
     inkscape:pageshadow="2"
     inkscape:zoom="1.979899"
     inkscape:cx="-22.365378"
     inkscape:cy="-9.1323603"
     inkscape:document-units="mm"
     inkscape:current-layer="layer1"
     showgrid="false"
     fit-margin-top="0"
     fit-margin-left="0"
     fit-margin-right="0"
     fit-margin-bottom="0"
     inkscape:window-width="1920"
     inkscape:window-height="1044"
     inkscape:window-x="1280"
     inkscape:window-y="0"
     inkscape:window-maximized="1" />
  <metadata
     id="metadata5217">
    <rdf:RDF>
      <cc:Work
         rdf:about="">
        <dc:format>image/svg+xml</dc:format>
        <dc:type
           rdf:resource="http://purl.org/dc/dcmitype/StillImage" />
        <dc:title></dc:title>
      </cc:Work>
    </rdf:RDF>
  </metadata>
  <g
     inkscape:label="Layer 1"
     inkscape:groupmode="layer"
     id="layer1"
     transform="translate(-99.309125,-3.7916961)">
    <g
       id="g1321"
       transform="matrix(4.1994751,0,0,4.1994751,-388.04505,-75.918252)">
      <g
         transform="matrix(0.26458333,0,0,0.26458333,84.036629,10.778848)"
         id="use1319">
        <path
           style="fill:#cccccc;stroke:none"
           inkscape:connector-curvature="0"
           id="path5283"
           d="M 136.35,33.6 Q 136.25,33.5 136.2,33.45 133.6,31 130,31 q -3.7,0 -6.35,2.55 -0.05,0.05 -0.1,0.1 Q 121,36.3 121,40 q 0,3.75 2.6,6.35 2.65,2.65 6.4,2.65 3.7,0 6.3,-2.65 0,-0.05 0.05,-0.05 2.65,-2.6 2.65,-6.3 0,-3.75 -2.65,-6.4 m -1.75,1 q 0.15,0.15 0.35,0.35 2.15,2.1 2.15,5.05 0,2.95 -2.15,4.95 -1.9,2 -4.6,2.15 -0.2,0 -0.35,0 -2.65,0 -4.6,-1.7 -0.25,-0.2 -0.5,-0.45 -2,-2 -2,-4.95 0,-2.95 2,-5.05 1.9,-1.8 4.4,-2 0.35,-0.05 0.7,-0.05 2.65,0 4.6,1.7 z" />
        <path
           style="fill:#83b7d2;stroke:none"
           inkscape:connector-curvature="0"
           id="path5285"
           d="m 129.7,45.2 -2.9,-0.95 -1.4,1.15 q 1.95,1.7 4.6,1.7 0.15,0 0.35,0 l -0.65,-1.9 m 3.05,-9.35 1.85,-1.25 q -1.95,-1.7 -4.6,-1.7 -0.35,0 -0.7,0.05 l 0.4,1.8 3.05,1.1 m -0.9,7.5 2.75,-0.2 0.95,-3.1 -2.15,-1.55 -2.15,2.1 0.6,2.75 m -4.35,-6.7 -2.75,0.45 -0.5,2.85 1.55,1.6 2.55,-2.2 z" />
        <path
           style="fill:#ffffff;stroke:none"
           inkscape:connector-curvature="0"
           id="path5287"
           d="m 134.95,34.95 q -0.2,-0.2 -0.35,-0.35 l -1.85,1.25 -3.05,-1.1 -0.4,-1.8 q -2.5,0.2 -4.4,2 -2,2.1 -2,5.05 0,2.95 2,4.95 0.25,0.25 0.5,0.45 l 1.4,-1.15 2.9,0.95 0.65,1.9 q 2.7,-0.15 4.6,-2.15 2.15,-2 2.15,-4.95 0,-2.95 -2.15,-5.05 m -10.2,2.15 2.75,-0.45 0.85,2.7 -2.55,2.2 -1.55,-1.6 0.5,-2.85 m 9.85,6.05 -2.75,0.2 -0.6,-2.75 2.15,-2.1 2.15,1.55 z" />
      </g>
    </g>
  </g>
</svg>
