<?xml version="1.0" encoding="UTF-8" standalone="no"?>
<!-- Created with Inkscape (http://www.inkscape.org/) -->

<svg
   xmlns:dc="http://purl.org/dc/elements/1.1/"
   xmlns:cc="http://creativecommons.org/ns#"
   xmlns:rdf="http://www.w3.org/1999/02/22-rdf-syntax-ns#"
   xmlns:svg="http://www.w3.org/2000/svg"
   xmlns="http://www.w3.org/2000/svg"
   xmlns:sodipodi="http://sodipodi.sourceforge.net/DTD/sodipodi-0.dtd"
   xmlns:inkscape="http://www.inkscape.org/namespaces/inkscape"
   width="20mm"
   height="20mm"
   viewBox="0 0 20.000001 20.000001"
   version="1.1"
   id="svg5220"
   inkscape:version="0.92.4 5da689c313, 2019-01-14"
   sodipodi:docname="football00.svg">
  <defs
     id="defs5214" />
  <sodipodi:namedview
     id="base"
     pagecolor="#ffffff"
     bordercolor="#666666"
     borderopacity="1.0"
     inkscape:pageopacity="0.0"
     inkscape:pageshadow="2"
     inkscape:zoom="15.839192"
     inkscape:cx="7.5339027"
     inkscape:cy="37.763967"
     inkscape:document-units="mm"
     inkscape:current-layer="layer1"
     showgrid="false"
     fit-margin-top="0"
     fit-margin-left="0"
     fit-margin-right="0"
     fit-margin-bottom="0"
     inkscape:window-width="1920"
     inkscape:window-height="1044"
     inkscape:window-x="1280"
     inkscape:window-y="0"
     inkscape:window-maximized="1" />
  <metadata
     id="metadata5217">
    <rdf:RDF>
      <cc:Work
         rdf:about="">
        <dc:format>image/svg+xml</dc:format>
        <dc:type
           rdf:resource="http://purl.org/dc/dcmitype/StillImage" />
        <dc:title></dc:title>
      </cc:Work>
    </rdf:RDF>
  </metadata>
  <g
     inkscape:label="Layer 1"
     inkscape:groupmode="layer"
     id="layer1"
     transform="translate(-84.036629,-10.778848)">
    <g
       id="g1077"
       transform="matrix(4.1994751,0,0,4.1994751,-83.741148,-23.665596)">
      <g
         transform="scale(0.26458333)"
         id="use1075">
        <path
           style="fill:#cccccc;stroke:none"
           inkscape:connector-curvature="0"
           id="path5234"
           d="M 166.35,33.6 Q 166.25,33.5 166.2,33.45 163.6,31 160,31 q -3.7,0 -6.35,2.55 -0.05,0.05 -0.1,0.1 Q 151,36.3 151,40 q 0,3.75 2.6,6.35 2.65,2.65 6.4,2.65 3.7,0 6.3,-2.65 0,-0.05 0.05,-0.05 2.65,-2.6 2.65,-6.3 0,-3.75 -2.65,-6.4 m -1.75,1 q 0.2,0.15 0.4,0.35 2.1,2.1 2.1,5.05 0,2.95 -2.1,4.95 -1.9,2 -4.6,2.15 -0.2,0 -0.4,0 -2.65,0 -4.6,-1.7 -0.25,-0.2 -0.45,-0.45 -2.05,-2 -2.05,-4.95 0,-2.95 2.05,-5.05 1.9,-1.8 4.4,-2 0.3,-0.05 0.65,-0.05 2.65,0 4.6,1.7 z" />
        <path
           style="fill:#464646;stroke:none"
           inkscape:connector-curvature="0"
           id="path5236"
           d="m 156.85,44.25 -1.45,1.15 q 1.95,1.7 4.6,1.7 0.2,0 0.4,0 l -0.7,-1.9 -2.85,-0.95 m 0.7,-7.6 -2.75,0.45 -0.55,2.85 1.6,1.6 2.55,-2.2 -0.85,-2.7 m 7.05,6.5 1,-3.1 -2.2,-1.55 -2.1,2.1 0.55,2.75 2.75,-0.2 m -1.85,-7.3 1.85,-1.25 q -1.95,-1.7 -4.6,-1.7 -0.35,0 -0.65,0.05 l 0.35,1.8 z" />
        <path
           style="fill:#ffffff;stroke:none"
           inkscape:connector-curvature="0"
           id="path5238"
           d="m 164.6,34.6 -1.85,1.25 -3.05,-1.1 -0.35,-1.8 q -2.5,0.2 -4.4,2 -2.05,2.1 -2.05,5.05 0,2.95 2.05,4.95 0.2,0.25 0.45,0.45 l 1.45,-1.15 2.85,0.95 0.7,1.9 q 2.7,-0.15 4.6,-2.15 2.1,-2 2.1,-4.95 0,-2.95 -2.1,-5.05 -0.2,-0.2 -0.4,-0.35 m 1,5.45 -1,3.1 -2.75,0.2 -0.55,-2.75 2.1,-2.1 2.2,1.55 m -10.8,-2.95 2.75,-0.45 0.85,2.7 -2.55,2.2 -1.6,-1.6 z" />
      </g>
    </g>
  </g>
</svg>
