<?xml version="1.0" encoding="UTF-8" standalone="no"?>
<!-- Created with Inkscape (http://www.inkscape.org/) -->

<svg
   xmlns:dc="http://purl.org/dc/elements/1.1/"
   xmlns:cc="http://creativecommons.org/ns#"
   xmlns:rdf="http://www.w3.org/1999/02/22-rdf-syntax-ns#"
   xmlns:svg="http://www.w3.org/2000/svg"
   xmlns="http://www.w3.org/2000/svg"
   xmlns:sodipodi="http://sodipodi.sourceforge.net/DTD/sodipodi-0.dtd"
   xmlns:inkscape="http://www.inkscape.org/namespaces/inkscape"
   width="20mm"
   height="20mm"
   viewBox="0 0 20.000001 20.000001"
   version="1.1"
   id="svg5220"
   inkscape:version="0.92.4 5da689c313, 2019-01-14"
   sodipodi:docname="football03.svg">
  <defs
     id="defs5214" />
  <sodipodi:namedview
     id="base"
     pagecolor="#ffffff"
     bordercolor="#666666"
     borderopacity="1.0"
     inkscape:pageopacity="0.0"
     inkscape:pageshadow="2"
     inkscape:zoom="1.979899"
     inkscape:cx="-52.814082"
     inkscape:cy="-44.631865"
     inkscape:document-units="mm"
     inkscape:current-layer="layer1"
     showgrid="false"
     fit-margin-top="0"
     fit-margin-left="0"
     fit-margin-right="0"
     fit-margin-bottom="0"
     inkscape:window-width="1920"
     inkscape:window-height="1044"
     inkscape:window-x="1280"
     inkscape:window-y="0"
     inkscape:window-maximized="1" />
  <metadata
     id="metadata5217">
    <rdf:RDF>
      <cc:Work
         rdf:about="">
        <dc:format>image/svg+xml</dc:format>
        <dc:type
           rdf:resource="http://purl.org/dc/dcmitype/StillImage" />
        <dc:title></dc:title>
      </cc:Work>
    </rdf:RDF>
  </metadata>
  <g
     inkscape:label="Layer 1"
     inkscape:groupmode="layer"
     id="layer1"
     transform="translate(-107.36534,5.6008812)">
    <g
       id="g1341"
       transform="matrix(4.1994751,0,0,4.1994751,-477.45863,-89.301792)">
      <g
         transform="matrix(0.26458333,0,0,0.26458333,99.309125,3.7916961)"
         id="use1339">
        <path
           style="fill:#cccccc;stroke:none"
           inkscape:connector-curvature="0"
           id="path5332"
           d="M 166.2,63.45 Q 165.7,62.95 165.15,62.6 162.9,61 160,61 q -3.7,0 -6.35,2.55 -0.05,0.05 -0.1,0.1 Q 151,66.3 151,70 q 0,3.75 2.6,6.35 1.75,1.75 3.95,2.35 1.15,0.3 2.45,0.3 2.95,0 5.2,-1.65 0.55,-0.45 1.1,-1 0,-0.05 0.05,-0.05 2.65,-2.6 2.65,-6.3 0,-0.45 -0.05,-0.85 -0.25,-3.2 -2.6,-5.55 -0.1,-0.1 -0.15,-0.15 m -1.6,1.15 q 0.2,0.15 0.4,0.35 0.2,0.2 0.35,0.4 0.9,1 1.35,2.2 0.25,0.75 0.35,1.6 0.05,0.4 0.05,0.85 0,2.95 -2.1,4.95 -0.4,0.4 -0.8,0.75 -0.65,0.5 -1.35,0.8 -1.1,0.55 -2.45,0.6 -0.2,0 -0.4,0 -0.25,0 -0.5,0 -0.9,-0.1 -1.7,-0.3 -1.3,-0.45 -2.4,-1.4 -0.25,-0.2 -0.45,-0.45 -2,-1.95 -2.05,-4.85 0,-0.05 0,-0.1 0,-1.2 0.35,-2.3 0,-0.05 0.05,-0.15 0.3,-0.9 0.9,-1.65 0.3,-0.5 0.75,-0.95 1.9,-1.8 4.4,-2 0.3,-0.05 0.65,-0.05 2.35,0 4.15,1.35 0.2,0.15 0.45,0.35 z" />
        <path
           style="fill:#ffffff;stroke:none"
           inkscape:connector-curvature="0"
           id="path5334"
           d="m 159.5,77.1 q 0.25,0 0.5,0 0.2,0 0.4,0 1.35,-0.05 2.45,-0.6 l -1.75,-2.65 -1.6,3.25 m -6.2,-9.55 q -0.05,0.1 -0.05,0.15 l 2.4,3.7 2.05,-4.1 -4.4,0.25 m 13.4,0 q -0.45,-1.2 -1.35,-2.2 l -1.3,2.2 h 2.65 m -4.25,0.3 q -0.1,-0.6 0.2,-1.1 l 1.5,-2.5 q -1.8,-1.35 -4.15,-1.35 -0.35,0 -0.65,0.05 -2.5,0.2 -4.4,2 -0.45,0.45 -0.75,0.95 l 3.35,-0.2 q 0.65,-0.05 1.1,0.3 0.5,0.35 0.6,0.95 0.15,0.55 -0.15,1.1 l -2.05,4.05 q -0.2,0.55 -0.75,0.8 -0.55,0.2 -1.05,0 -0.6,-0.15 -0.95,-0.65 l -1.4,-2.15 q 0.05,2.9 2.05,4.85 0.2,0.25 0.45,0.45 1.1,0.95 2.4,1.4 l 1.85,-3.6 q 0.25,-0.6 0.8,-0.8 0.55,-0.25 1.15,-0.05 0.5,0.15 0.85,0.7 l 1.75,2.65 q 0.4,-0.35 0.8,-0.75 2.1,-2 2.1,-4.95 0,-0.45 -0.05,-0.85 h -3 q -0.6,0 -1,-0.4 -0.5,-0.35 -0.6,-0.9 z" />
        <path
           style="fill:#464646;stroke:none"
           inkscape:connector-curvature="0"
           id="path5336"
           d="m 159.1,68.05 q 0.3,-0.55 0.15,-1.1 -0.1,-0.6 -0.6,-0.95 -0.45,-0.35 -1.1,-0.3 l -3.35,0.2 q -0.6,0.75 -0.9,1.65 l 4.4,-0.25 -2.05,4.1 -2.4,-3.7 q -0.35,1.1 -0.35,2.3 0,0.05 0,0.1 l 1.4,2.15 q 0.35,0.5 0.95,0.65 0.5,0.2 1.05,0 0.55,-0.25 0.75,-0.8 l 2.05,-4.05 m 3.75,8.45 q 0.7,-0.3 1.35,-0.8 l -1.75,-2.65 q -0.35,-0.55 -0.85,-0.7 -0.6,-0.2 -1.15,0.05 -0.55,0.2 -0.8,0.8 l -1.85,3.6 q 0.8,0.2 1.7,0.3 l 1.6,-3.25 1.75,2.65 M 165,64.95 q -0.2,-0.2 -0.4,-0.35 -0.25,-0.2 -0.45,-0.35 l -1.5,2.5 q -0.3,0.5 -0.2,1.1 0.1,0.55 0.6,0.9 0.4,0.4 1,0.4 h 3 q -0.1,-0.85 -0.35,-1.6 h -2.65 l 1.3,-2.2 q -0.15,-0.2 -0.35,-0.4 z" />
      </g>
    </g>
  </g>
</svg>
